<?xml version="1.0" standalone="no"?>
<!DOCTYPE svg PUBLIC "-//W3C//DTD SVG 20010904//EN"
 "http://www.w3.org/TR/2001/REC-SVG-20010904/DTD/svg10.dtd">
<svg version="1.0" xmlns="http://www.w3.org/2000/svg"
 width="1000.000000pt" height="1000.000000pt" viewBox="0 0 1000.000000 1000.000000"
 preserveAspectRatio="xMidYMid meet">
<metadata>
Created by potrace 1.14, written by Peter Selinger 2001-2017
</metadata>
<g transform="translate(0.000000,1000.000000) scale(0.100000,-0.100000)"
fill="#000000" stroke="none">
<path d="M722 7175 c-4 -5 -7 -990 -7 -2188 l0 -2177 1665 2 1665 3 0 425 0
425 -1180 2 c-649 0 -1183 2 -1187 2 -5 1 -8 205 -8 455 0 354 3 455 13 458 6
2 470 4 1030 3 689 0 1017 3 1018 10 6 52 2 838 -4 842 -4 3 -469 5 -1033 5
l-1024 0 0 444 0 444 1173 0 1172 0 -1 423 c-1 232 -2 424 -3 427 -2 10 -3283
5 -3289 -5z"/>
<path d="M4909 7185 c-1 0 -2 -984 -3 -2187 l-1 -2188 472 0 473 0 0 1418 0
1417 105 -160 c58 -88 210 -319 338 -513 127 -194 327 -497 444 -675 316 -480
334 -506 347 -501 6 2 21 19 32 37 56 83 448 678 532 807 53 80 190 289 307
465 116 176 244 371 284 433 41 61 77 112 80 112 3 0 6 -639 5 -1420 l0 -1420
478 0 478 0 0 2188 0 2187 -522 0 c-370 0 -522 -3 -525 -11 -3 -10 -106 -177
-168 -274 -13 -19 -58 -91 -100 -160 -42 -69 -87 -141 -100 -160 -12 -19 -58
-93 -102 -165 -66 -106 -388 -624 -547 -880 -20 -33 -43 -69 -49 -79 -7 -11
-26 -41 -43 -68 l-31 -48 -25 37 c-25 37 -462 739 -503 807 -27 45 -419 677
-463 746 -19 30 -45 71 -57 90 -12 19 -40 64 -62 100 l-40 65 -517 0 c-284 0
-517 0 -517 0z"/>
</g>
</svg>
